<svg width="291" height="56" viewBox="0 0 291 56" fill="none" xmlns="http://www.w3.org/2000/svg">
<path fill-rule="evenodd" clip-rule="evenodd" d="M264.288 8.90951C259.921 8.90951 246.454 10.459 246.454 27.8906C246.454 46.4844 261.013 47.2592 263.924 47.2592C265.744 47.2592 272.296 46.8718 276.663 42.2233C279.939 38.737 281.395 34.0886 281.395 27.8906C281.759 10.0716 268.656 8.90951 264.288 8.90951ZM269.748 39.8991C268.656 40.6739 267.2 41.836 264.652 41.836H264.288C261.741 41.836 260.285 40.6739 259.193 39.8991C256.645 37.5749 255.553 33.3138 255.553 27.1159C255.553 15.4948 261.013 13.558 264.288 13.558H264.652C267.928 13.558 273.388 15.4948 273.388 27.1159C273.388 33.3138 272.296 37.5749 269.748 39.8991ZM53.9128 53.0697C50.637 51.9076 45.9054 48.0339 43.3576 44.5475C40.0818 40.2864 31.7105 28.6653 31.7105 28.6653C30.2546 27.1159 29.1627 25.179 27.7068 23.2421C24.0671 17.8189 20.0634 12.0084 15.6958 8.52203V47.2591H20.7914V27.1158L25.159 32.9264C27.3428 36.0254 29.8907 39.5117 31.7105 41.8359C33.1664 43.3854 36.4421 47.6465 37.534 48.4212C42.2657 53.0697 49.5451 55.7812 56.8246 55.7812C60.1003 55.7812 63.0121 55.3939 65.9239 54.2318V53.8444C64.832 54.2318 63.3761 54.2318 62.2841 54.2318C59.7364 55.0065 56.8246 54.2318 53.9128 53.0697ZM22.6112 11.6211C25.887 15.8822 34.6223 27.5033 34.6223 27.5033C35.7142 29.0527 37.17 30.9896 38.262 32.9265C41.9017 38.3497 45.9054 44.1602 50.273 47.6466V8.90951H45.1774V29.0528L40.8098 23.2422C38.626 19.7559 36.4421 16.657 34.2583 14.3327C33.1664 12.3959 29.1627 8.52214 28.0708 7.36004C23.7031 2.71158 16.0597 1.52588e-05 8.78026 1.52588e-05C5.86846 1.52588e-05 2.95672 0.387382 0.0449219 1.54948V1.93685C1.13683 1.54948 2.5927 1.54948 3.68465 1.54948C6.59645 1.54948 9.14423 2.32422 12.056 3.09895C15.3318 4.26105 20.0634 8.13472 22.6112 11.6211ZM215.152 28.6654C211.149 24.7917 206.417 24.0169 203.141 21.6927C200.593 19.7559 200.957 17.0443 202.049 15.4948C204.961 11.6211 211.149 13.1706 212.604 13.558C214.424 13.9453 215.152 14.3327 216.972 15.4948V11.2337C209.693 8.90951 198.41 6.97262 194.042 14.7201C192.222 17.8191 191.858 23.2422 196.59 26.7285C201.321 30.6023 209.693 32.5391 210.421 36.0255C211.149 37.9623 210.421 39.5118 209.329 40.6739C204.961 44.935 198.046 42.2234 193.678 40.2866V44.935C198.41 47.2592 204.597 47.6466 209.693 46.4845C213.332 45.7097 217.336 42.2234 218.064 37.9623C218.792 33.7012 217.7 30.9896 215.152 28.6654ZM241.358 28.6654C237.355 24.7917 232.623 24.0169 229.347 21.6927C226.799 19.7559 227.163 17.0443 228.255 15.4948C231.167 12.0084 236.991 13.558 238.446 13.9453C240.266 14.3327 240.994 14.7201 242.814 15.8822V11.2337C235.535 8.90951 224.252 6.97262 219.884 14.7201C218.428 17.8191 218.064 23.2422 222.796 26.7285C227.527 30.6023 235.899 32.5391 236.627 36.0255C237.355 37.9623 236.627 39.5118 235.535 40.6739C231.167 44.935 224.252 42.2234 219.884 40.2866V44.935C224.616 47.2592 230.439 47.6466 235.899 46.4845C239.538 45.7097 243.542 42.2234 244.27 37.9623C244.998 33.7012 243.906 30.9896 241.358 28.6654ZM167.836 46.4844H190.766V41.836H175.843V29.8275H187.854V25.5664H175.843V14.3326H190.766V10.0716H167.836V46.4844ZM102.321 28.6654C98.3173 24.7917 93.5857 24.0169 90.3099 21.6927C87.7622 19.7559 88.1261 17.0443 89.218 15.4948C92.1298 12.0084 97.9534 13.558 99.4093 13.9453C101.229 14.3327 101.957 14.7201 103.777 15.8822V11.2337C96.4975 8.90951 85.2143 6.97262 80.8467 14.7201C79.3908 17.8191 78.6629 23.2422 83.7585 26.7285C88.4902 30.6023 96.8615 32.5391 97.5895 36.0255C98.3174 37.9623 97.5895 39.5118 96.4976 40.6739C92.1299 44.935 85.2144 42.2234 80.8468 40.2866V44.935C85.5784 47.2592 91.7659 47.6466 96.8615 46.4845C100.501 45.7097 104.505 42.2234 105.233 37.9623C105.597 33.7012 104.869 30.9896 102.321 28.6654ZM55.0047 46.4844H77.9349V41.836H63.012V29.8275H75.0231V25.5664H63.012V14.3326H77.9349V10.0716H55.0047V46.4844ZM123.795 9.68424H108.872V46.8718H116.516V33.3139C116.516 33.3139 128.527 34.0886 132.167 29.0528C134.714 25.9538 135.078 20.5306 133.986 16.657C132.167 11.6211 128.163 9.68424 123.795 9.68424ZM125.251 26.3412C123.067 28.6654 119.428 28.6654 116.516 28.278V14.3327C116.516 14.3327 123.067 12.7832 125.615 16.6569C127.071 18.5937 127.071 23.6296 125.251 26.3412ZM160.193 28.6654C162.74 25.5664 163.104 20.5306 162.012 16.2695C160.556 12.0084 156.553 9.68424 152.185 9.68424H137.262V46.4845H144.906V32.9265H148.545L156.553 46.4845H165.288L156.553 31.377C157.645 30.6023 159.465 29.8275 160.193 28.6654ZM154.005 26.3412C151.821 28.6654 148.181 28.278 145.27 28.278V14.7201C145.27 14.7201 151.457 13.1706 154.369 17.0443C155.461 18.9811 155.825 23.6296 154.005 26.3412ZM286.491 38.3497C283.943 38.3497 282.123 40.2865 282.123 42.9981C282.123 45.7097 284.307 47.6466 286.491 47.6466C288.674 47.6466 290.858 45.7097 290.858 42.9981C290.858 40.2865 288.675 38.3497 286.491 38.3497ZM286.491 46.8718C284.307 46.8718 282.487 44.935 282.487 42.6107C282.487 40.2864 284.307 38.3497 286.491 38.3497C288.674 38.3497 290.494 40.2864 290.494 42.6107C290.13 45.3223 288.311 46.8718 286.491 46.8718ZM287.583 42.9981C287.583 42.9981 288.311 42.6108 288.311 41.836C288.311 41.0613 287.583 40.2866 286.855 40.2866H284.671V45.3224H285.399V43.3855H286.855C287.583 43.3855 287.947 43.7729 287.947 44.5476V45.3224H288.674C288.31 44.935 288.311 44.5476 288.311 43.7729C288.311 42.9982 287.947 42.9981 287.583 42.9981ZM286.491 42.6108H285.035V41.0613H286.491C286.855 41.0613 287.219 41.0613 287.219 41.836C287.583 42.2234 287.219 42.6108 286.491 42.6108Z" fill="white"/>
</svg>
