<svg width="127" height="19" viewBox="0 0 127 19" fill="none" xmlns="http://www.w3.org/2000/svg">
<path d="M15.5977 18.2344H14.3438L10.5938 7.40625L6.94922 18.2344H5.69531L0.0585938 0.832031H3.23438L6.45703 11.1914L9.9375 0.832031H11.2734L14.7656 11.1914L17.9766 0.832031H21.1523L15.5977 18.2344ZM32.8477 18V10.2656H26.0156V18H22.9688V0.832031H26.0156V7.55859H32.8477V0.832031H35.8594V18H32.8477ZM49.3945 18L48.1406 14.5195H42.2578L41.0625 18H37.6758L44.5195 0.597656H45.8555L52.7578 18H49.3945ZM45.1875 5.84766L43.125 12.1875H47.25L45.1875 5.84766ZM61.5703 3.53906V18H58.5234V3.53906H53.0625V0.832031H67.2773V3.53906H61.5703ZM79.5703 3.53906V7.55859H85.2422V10.1484H79.5703V15.293H87.3516V18H76.5234V0.832031H87.4805V3.53906H79.5703ZM90.1875 18V0.832031H93.2344V15.293H100.992V18H90.1875ZM102.633 17.0508L103.758 14.3203C104.961 15.1641 106.145 15.5859 107.309 15.5859C109.098 15.5859 109.992 14.9609 109.992 13.7109C109.992 13.125 109.781 12.5664 109.359 12.0352C108.938 11.5039 108.066 10.9102 106.746 10.2539C105.434 9.58984 104.547 9.04688 104.086 8.625C103.633 8.19531 103.281 7.6875 103.031 7.10156C102.789 6.51562 102.668 5.86719 102.668 5.15625C102.668 3.82812 103.152 2.72656 104.121 1.85156C105.098 0.976562 106.348 0.539062 107.871 0.539062C109.855 0.539062 111.312 0.910156 112.242 1.65234L111.316 4.27734C110.246 3.51172 109.117 3.12891 107.93 3.12891C107.227 3.12891 106.68 3.31641 106.289 3.69141C105.906 4.05859 105.715 4.53906 105.715 5.13281C105.715 6.11719 106.805 7.14062 108.984 8.20312C110.133 8.76562 110.961 9.28516 111.469 9.76172C111.977 10.2305 112.363 10.7812 112.629 11.4141C112.895 12.0391 113.027 12.7383 113.027 13.5117C113.027 14.9023 112.477 16.0469 111.375 16.9453C110.281 17.8438 108.812 18.293 106.969 18.293C105.367 18.293 103.922 17.8789 102.633 17.0508ZM118.781 3.53906V7.55859H124.453V10.1484H118.781V15.293H126.562V18H115.734V0.832031H126.691V3.53906H118.781Z" fill="white"/>
</svg>
